<svg xmlns="http://www.w3.org/2000/svg" width="500" height="500" style="width:100%;height:100%"><defs><clipPath id="a"><path d="M0 0h500v500H0z"/></clipPath></defs><g clip-path="url(#a)"><path stroke-linecap="round" stroke-linejoin="round" stroke="#121330" stroke-width="12.985" d="M165.93 189.893v-35.784c0-45.161 36.61-81.771 81.77-81.771h6.755c45.161 0 81.771 36.61 81.771 81.77v34.962M130.174 427.126c0-42.532 21.9-79.947 55.037-101.587 19.037-12.432 41.776-6.188 66.21-6.188 24.433 0 47.176-6.244 66.213 6.188 33.134 21.64 55.034 59.055 55.034 101.587H130.174z" fill="none" display="block"/><path stroke-linecap="round" stroke-linejoin="round" stroke="#07A889" stroke-width="12.985" d="M170.263 238.602H160.4c-11.956 0-21.648-9.692-21.648-21.648 0 0 0 0 0 0 0-11.956 9.692-21.644 21.648-21.644h9.863s63.238-4.85 106.151-64.816l.018.003c12.285 3.959 23.285 10.794 32.228 19.737 14.651 14.651 23.698 34.902 23.698 57.263v27.706c0 44.72-36.239 80.959-80.958 80.959-44.67 0-80.91-36.239-80.91-80.959v-27.706c0-4.165.312-8.274.928-12.285M332.376 238.602h9.863c11.956 0 21.648-9.692 21.648-21.648 0 0 0 0 0 0 0-11.956-9.692-21.644-21.648-21.644h-9.863" fill="none" display="block"/></g></svg>